<?xml version="1.0" standalone="no"?>
<!DOCTYPE svg PUBLIC "-//W3C//DTD SVG 20010904//EN"
 "http://www.w3.org/TR/2001/REC-SVG-20010904/DTD/svg10.dtd">
<svg version="1.0" xmlns="http://www.w3.org/2000/svg"
 width="2480.000000pt" height="2500.000000pt" viewBox="0 0 2480.000000 2500.000000"
 preserveAspectRatio="xMidYMid meet">

<g transform="translate(0.000000,2500.000000) scale(0.100000,-0.100000)"
fill="#000000" stroke="none">
<path d="M12826 23985 c-8 -21 -3 -22 159 -35 77 -6 147 -13 156 -16 8 -2 58
-8 110 -14 273 -27 563 -67 884 -120 196 -32 403 -76 705 -149 69 -16 143 -34
165 -39 133 -32 371 -98 525 -145 63 -20 162 -50 220 -67 155 -47 303 -97 590
-200 63 -23 126 -46 140 -50 69 -23 361 -146 497 -211 34 -16 64 -29 67 -29 9
0 278 -125 394 -183 56 -28 77 -47 53 -47 -8 0 -75 27 -136 54 -54 25 -188 75
-310 116 -401 136 -878 289 -960 309 -88 21 -131 33 -150 41 -11 5 -33 11 -50
15 -91 18 -124 26 -165 39 -25 8 -76 22 -115 31 -38 9 -97 23 -130 31 -33 7
-103 22 -155 33 -52 11 -131 28 -175 39 -44 11 -102 23 -130 27 -27 4 -133 22
-235 41 -102 18 -203 35 -225 38 -22 2 -47 6 -55 9 -14 5 -146 22 -247 32 -24
2 -46 6 -50 8 -5 3 -42 8 -83 11 -41 3 -97 11 -125 16 -27 6 -88 12 -135 14
-47 3 -85 5 -85 6 0 1 -22 4 -50 5 -27 2 -106 9 -175 16 -69 6 -161 13 -205
14 -626 21 -863 23 -1195 6 -107 -5 -204 -9 -215 -9 -29 1 -297 -20 -395 -32
-389 -44 -433 -50 -605 -76 -55 -8 -131 -19 -170 -24 -38 -5 -104 -16 -145
-24 -41 -8 -95 -18 -120 -21 -25 -4 -70 -13 -100 -20 -30 -7 -82 -18 -115 -25
-78 -16 -262 -58 -300 -69 -16 -5 -64 -16 -105 -26 -41 -9 -140 -34 -220 -56
-80 -22 -170 -47 -200 -56 -97 -26 -194 -55 -215 -63 -41 -15 -123 -42 -200
-66 -44 -14 -118 -40 -165 -59 -47 -18 -112 -43 -145 -55 -78 -29 -148 -57
-210 -85 -27 -13 -79 -35 -115 -50 -70 -29 -299 -142 -315 -155 -5 -5 -46 -26
-90 -48 -87 -44 -151 -94 -125 -99 14 -3 131 30 330 92 47 15 99 31 115 35 17
5 101 29 188 54 87 25 165 46 173 46 8 0 22 4 32 9 9 5 44 17 77 26 33 9 72
21 87 27 14 5 37 7 49 3 20 -7 14 -12 -50 -41 -40 -19 -78 -34 -85 -34 -6 0
-20 -6 -31 -13 -42 -29 -337 -147 -440 -177 -33 -10 -259 -94 -290 -109 -11
-5 -33 -14 -50 -20 -64 -21 -474 -195 -570 -240 -153 -74 -513 -255 -534 -270
-14 -10 -51 -31 -81 -46 -230 -115 -889 -544 -1215 -791 -280 -212 -306 -234
-465 -370 -80 -68 -206 -174 -280 -236 -74 -62 -172 -148 -218 -193 -45 -44
-87 -81 -92 -83 -34 -12 10 40 163 192 254 253 461 443 666 609 63 50 135 109
160 129 25 21 105 82 176 136 72 54 166 127 211 163 44 35 125 96 179 134 54
39 112 82 129 96 17 14 60 45 96 69 170 115 269 183 310 211 25 18 128 88 230
157 215 145 267 185 252 190 -6 2 -25 -4 -43 -14 -56 -29 -329 -194 -430 -259
-53 -35 -109 -70 -125 -79 -16 -9 -103 -68 -194 -131 -91 -63 -176 -123 -190
-132 -120 -83 -550 -411 -660 -503 -394 -331 -480 -410 -775 -706 -293 -294
-683 -716 -805 -870 -14 -17 -86 -107 -161 -200 -74 -93 -191 -244 -260 -335
-168 -225 -271 -372 -431 -619 -61 -94 -180 -291 -348 -575 -91 -153 -374
-706 -497 -970 -42 -88 -91 -194 -110 -235 -20 -41 -41 -92 -49 -113 -7 -20
-20 -52 -28 -70 -69 -156 -150 -365 -254 -657 -96 -272 -93 -262 -136 -430
-35 -138 -80 -280 -135 -428 -30 -80 -44 -202 -23 -202 4 0 13 21 21 48 21 79
91 313 116 387 12 39 44 138 70 220 26 83 57 179 70 215 13 36 35 101 50 145
24 70 68 187 110 295 7 19 27 71 44 115 28 75 151 359 219 505 16 36 47 103
68 150 52 118 172 358 264 530 43 80 99 186 125 235 26 50 54 101 62 115 8 14
24 43 37 65 182 320 410 679 601 945 42 58 83 116 93 130 43 63 188 257 205
275 19 20 19 20 13 -2 -4 -12 -26 -50 -49 -84 -84 -122 -185 -288 -223 -364
-8 -16 -23 -43 -34 -60 -11 -16 -33 -55 -50 -85 -17 -30 -38 -68 -48 -85 -119
-204 -309 -557 -425 -790 -326 -655 -508 -1069 -667 -1515 -28 -80 -58 -161
-65 -180 -21 -54 -76 -231 -159 -510 -63 -213 -134 -481 -165 -625 -12 -55
-26 -113 -31 -130 -5 -16 -14 -63 -20 -104 -6 -40 -13 -77 -15 -82 -5 -8 -69
-317 -85 -414 -5 -27 -18 -102 -29 -165 -81 -457 -160 -1263 -147 -1490 3 -61
0 -200 -9 -330 -16 -224 -13 -295 9 -326 10 -13 15 49 24 298 22 560 55 1027
93 1303 20 145 91 597 110 690 4 22 13 72 19 110 7 39 20 97 30 130 l18 60 1
-52 c1 -29 -3 -62 -8 -75 -5 -13 -17 -86 -26 -163 -9 -77 -23 -174 -30 -215
-8 -41 -16 -100 -20 -130 -15 -146 -35 -330 -40 -375 -3 -27 -8 -84 -10 -125
-2 -41 -9 -140 -14 -220 -5 -80 -10 -152 -10 -160 0 -8 -3 -55 -5 -105 -6
-123 -7 -690 -1 -795 2 -47 7 -141 10 -210 14 -272 40 -570 66 -760 34 -252
49 -353 64 -425 7 -38 19 -97 25 -130 12 -67 28 -137 65 -300 27 -113 105
-374 131 -433 8 -18 14 -39 14 -47 0 -18 19 -30 31 -18 9 9 6 44 -22 301 -31
283 -40 387 -45 487 -5 98 -4 108 10 92 8 -10 17 -42 21 -70 3 -29 10 -72 16
-97 14 -67 50 -248 60 -303 4 -26 12 -62 18 -80 5 -17 14 -57 20 -87 21 -106
51 -245 60 -280 10 -34 36 -148 81 -350 40 -177 40 -179 115 -450 21 -74 53
-182 73 -240 19 -58 43 -132 52 -165 32 -106 118 -341 166 -450 7 -16 38 -93
69 -170 104 -258 218 -517 283 -644 35 -69 98 -191 139 -271 41 -80 116 -210
166 -288 121 -189 129 -202 124 -216 -6 -19 79 -158 192 -311 189 -255 374
-496 466 -606 421 -502 787 -889 1159 -1224 49 -44 110 -99 137 -123 26 -24
63 -55 82 -70 45 -35 239 -196 291 -243 23 -19 75 -61 116 -93 41 -31 136
-104 210 -162 116 -90 376 -279 505 -367 73 -50 289 -193 380 -252 136 -88
556 -335 569 -335 3 0 25 -12 48 -27 130 -81 893 -448 1049 -504 35 -12 69
-26 74 -30 17 -12 442 -184 555 -224 36 -13 103 -38 150 -55 126 -47 544 -183
645 -210 17 -5 118 -33 225 -63 217 -61 280 -76 455 -107 104 -19 346 -77 455
-110 43 -13 157 -13 165 -1 6 11 -11 17 -75 26 -25 4 -81 15 -125 26 -495 115
-746 178 -925 229 -80 23 -158 46 -175 50 -106 29 -343 108 -500 165 -55 20
-147 54 -205 75 -160 58 -404 154 -510 200 -52 23 -124 54 -160 70 -36 15 -96
42 -135 60 -38 18 -92 41 -120 52 -52 20 -671 325 -715 352 -14 8 -72 42 -130
74 -58 32 -193 111 -300 176 -107 64 -204 123 -215 129 -11 7 -34 22 -52 34
-17 13 -35 23 -38 23 -12 0 -125 83 -125 91 0 13 5 11 47 -13 105 -62 289
-158 438 -228 50 -24 159 -76 243 -116 84 -41 155 -74 158 -74 2 0 46 -20 96
-44 51 -24 127 -58 168 -76 41 -17 89 -38 105 -45 17 -7 55 -23 85 -35 30 -12
59 -25 65 -29 5 -5 23 -11 38 -15 16 -4 56 -19 90 -35 34 -15 85 -36 112 -45
28 -10 97 -36 155 -58 145 -55 553 -196 620 -214 30 -9 80 -23 110 -33 30 -10
82 -26 115 -36 33 -9 71 -21 85 -26 30 -10 103 -29 110 -28 3 0 19 -5 35 -11
17 -7 39 -14 50 -15 11 -2 45 -11 75 -20 30 -9 84 -23 120 -31 69 -16 116 -27
275 -67 55 -14 123 -28 150 -32 28 -4 55 -11 61 -16 6 -5 22 -9 35 -8 13 0 44
-5 69 -11 25 -6 74 -15 110 -19 36 -5 82 -15 103 -24 22 -9 67 -19 100 -21 34
-3 90 -12 125 -21 34 -9 67 -13 72 -10 6 4 39 -1 73 -9 35 -9 92 -18 127 -21
36 -2 108 -11 160 -19 114 -18 268 -37 330 -41 150 -9 493 -35 498 -39 13 -7
427 -18 657 -17 356 2 613 10 815 27 102 9 208 17 235 19 121 8 593 67 690 86
28 6 64 12 80 14 17 2 46 7 65 10 19 3 73 13 120 21 47 8 117 21 155 29 39 8
79 17 90 19 60 10 281 61 330 75 17 5 46 12 65 16 19 4 87 23 150 42 63 19
144 43 180 53 80 23 240 80 340 121 41 17 98 41 125 52 58 25 87 46 79 59 -4
5 -16 7 -28 4 -11 -3 -73 -14 -136 -25 -63 -11 -189 -33 -280 -50 -91 -16
-214 -37 -275 -46 -60 -9 -162 -26 -225 -36 -63 -10 -155 -23 -205 -29 -49 -5
-124 -14 -165 -20 -41 -6 -113 -13 -160 -15 -47 -3 -123 -10 -170 -15 -210
-25 -307 -32 -640 -48 -362 -18 -598 -20 -1025 -7 -403 11 -501 17 -795 46
-58 5 -143 13 -190 18 -47 4 -91 11 -98 15 -7 4 -41 8 -75 7 -35 0 -88 6 -118
14 -29 8 -79 15 -109 15 -30 0 -71 5 -90 10 -19 6 -66 13 -105 16 -38 4 -79
10 -92 15 -13 5 -56 11 -96 15 -39 3 -81 11 -92 17 -11 6 -47 15 -80 19 -136
17 -192 26 -220 38 -16 6 -55 16 -85 21 -30 5 -75 13 -100 18 -25 6 -81 17
-125 26 -44 9 -95 19 -113 22 -18 3 -35 9 -38 14 -3 5 -20 9 -39 9 -19 0 -37
5 -40 11 -4 5 -17 9 -28 8 -12 -2 -33 1 -47 4 -14 4 -43 12 -65 18 -22 6 -69
19 -105 29 -36 10 -99 28 -140 40 -399 111 -575 180 -744 290 -40 26 -93 59
-117 72 -219 123 -309 172 -399 217 -58 30 -130 68 -160 86 -30 18 -95 53
-145 80 -207 109 -797 500 -1087 718 -57 43 -173 130 -258 194 -207 154 -293
227 -495 423 -173 168 -249 237 -364 328 -258 206 -922 944 -1302 1447 -82
108 -105 145 -91 145 6 0 57 -57 115 -127 58 -71 140 -166 182 -213 42 -47
114 -128 160 -180 100 -112 647 -657 755 -751 260 -227 554 -471 605 -504 35
-22 105 -75 194 -147 33 -27 61 -48 65 -48 5 0 110 -74 169 -120 35 -28 361
-247 408 -274 84 -50 303 -183 342 -208 23 -16 58 -36 77 -46 19 -10 44 -23
55 -30 160 -102 971 -514 1115 -567 19 -8 87 -36 150 -64 62 -28 119 -51 126
-51 7 0 27 -8 46 -17 18 -9 45 -22 60 -30 14 -7 32 -13 40 -13 7 0 25 -6 39
-14 15 -7 53 -23 85 -34 33 -11 92 -34 133 -51 41 -16 87 -33 102 -36 16 -4
31 -11 34 -16 4 -5 13 -9 22 -9 8 0 29 -6 46 -14 46 -20 147 -53 184 -61 18
-4 35 -11 38 -16 4 -5 19 -9 34 -9 15 0 32 -5 38 -11 6 -6 29 -15 50 -19 36
-8 112 -33 158 -51 11 -5 63 -20 115 -33 52 -14 111 -30 130 -37 19 -6 55 -15
80 -19 51 -9 195 -47 225 -60 11 -5 38 -11 60 -15 22 -3 72 -14 110 -25 123
-33 291 -70 319 -70 15 0 36 -5 47 -11 11 -5 38 -12 61 -15 23 -3 51 -12 62
-20 20 -15 18 -15 -22 -9 -24 4 -62 9 -85 10 -23 2 -69 8 -102 14 -82 13 -204
32 -240 36 -16 2 -52 9 -80 15 -72 16 -130 27 -210 40 -38 7 -78 16 -87 21
-10 5 -33 9 -52 9 -18 0 -53 7 -76 15 -24 8 -68 18 -99 21 -31 4 -60 10 -66
14 -11 8 -61 19 -111 24 -17 2 -41 9 -53 15 -12 7 -26 9 -32 6 -5 -4 -21 0
-34 9 -13 9 -39 16 -56 16 -18 0 -46 4 -63 9 -96 29 -145 41 -167 41 -14 0
-29 4 -35 9 -5 5 -27 11 -49 14 -22 2 -74 14 -115 26 -115 34 -123 36 -118 21
4 -14 68 -50 153 -87 28 -12 77 -34 110 -48 33 -15 95 -40 138 -55 43 -15 81
-31 84 -34 4 -3 19 -6 34 -6 15 0 30 -4 33 -9 3 -5 18 -12 33 -15 16 -4 64
-20 108 -35 103 -36 226 -72 375 -111 47 -12 123 -33 170 -45 126 -35 252 -64
365 -85 55 -11 172 -33 260 -50 257 -49 482 -84 640 -100 55 -5 132 -14 170
-20 39 -5 107 -12 151 -15 45 -3 94 -7 110 -10 125 -22 1055 -43 1319 -30 222
11 463 26 490 30 29 5 243 25 275 26 37 1 410 53 545 76 50 9 110 19 135 24
98 16 211 38 335 64 168 35 190 40 250 55 28 7 66 16 85 20 119 29 311 80 410
110 36 11 88 26 115 34 156 45 245 73 375 118 276 95 335 117 410 148 41 18
118 49 170 70 182 73 267 112 610 283 400 198 519 263 745 402 61 37 143 88
184 112 79 47 270 184 382 275 79 63 280 245 328 297 190 202 407 439 470 514
24 28 65 75 91 102 25 28 55 64 65 80 10 17 39 53 64 80 26 28 69 83 96 123
28 40 72 103 100 140 49 66 78 107 159 227 56 82 163 257 201 330 17 33 46 87
65 120 18 33 44 80 57 105 37 69 164 351 173 385 5 17 17 57 28 90 12 33 25
76 30 95 13 44 10 122 -3 126 -16 5 -86 -90 -174 -236 -150 -248 -267 -424
-444 -671 -129 -179 -457 -558 -668 -770 -272 -273 -694 -642 -905 -789 -12
-8 -46 -33 -75 -56 -179 -135 -435 -302 -709 -464 -247 -145 -860 -460 -955
-490 -22 -7 -60 -23 -85 -36 -25 -13 -83 -38 -130 -57 -243 -97 -520 -210
-555 -226 -22 -10 -121 -44 -220 -75 -99 -32 -191 -61 -205 -66 -72 -25 -273
-83 -410 -119 -85 -22 -182 -47 -215 -56 -73 -20 -171 -42 -245 -55 -30 -5
-86 -16 -125 -25 -91 -21 -281 -54 -370 -65 -38 -5 -81 -12 -95 -14 -14 -3
-92 -14 -175 -25 -82 -11 -168 -23 -190 -26 -106 -14 -375 -40 -570 -55 -139
-11 -595 -12 -785 -3 -63 3 -128 6 -145 6 -16 0 -120 6 -230 14 -110 9 -222
17 -250 18 -49 4 -185 18 -335 35 -193 22 -266 32 -281 40 -9 5 -19 7 -22 4
-3 -3 -40 1 -82 10 -43 9 -96 16 -119 16 -22 1 -52 7 -66 15 -14 8 -40 14 -59
15 -18 0 -50 4 -70 9 -20 5 -72 17 -116 27 -44 9 -107 26 -139 36 -33 10 -80
18 -106 18 -25 0 -51 5 -57 11 -5 5 -39 17 -74 25 -35 8 -80 21 -100 28 -20 8
-65 20 -100 26 -35 7 -68 15 -74 20 -5 4 -26 10 -45 13 -19 2 -48 9 -65 15
-16 6 -91 30 -165 52 -74 23 -151 48 -170 55 -19 8 -46 17 -60 20 -14 3 -34
10 -45 14 -36 14 -89 33 -120 41 -43 12 -115 38 -152 55 -17 8 -38 15 -47 15
-9 0 -24 4 -34 9 -9 5 -64 28 -122 51 -58 23 -113 46 -122 51 -10 5 -24 9 -32
9 -8 0 -27 7 -43 15 -15 7 -50 24 -78 35 -27 12 -63 27 -80 35 -16 8 -75 32
-130 55 -170 70 -275 119 -565 264 -305 153 -690 363 -783 429 -16 11 -43 27
-61 36 -60 29 -139 81 -591 381 -50 34 -84 58 -241 173 -39 29 -93 68 -119 87
-26 19 -66 50 -89 69 -23 19 -65 51 -94 73 -233 173 -798 684 -1078 974 -379
395 -556 602 -851 994 -154 205 -165 220 -183 246 -8 12 -41 60 -72 106 -74
106 -78 112 -118 178 -117 192 -354 657 -454 890 -32 74 -71 164 -87 200 -57
129 -123 310 -214 585 -177 532 -239 780 -324 1285 -17 102 -36 210 -41 240
-5 30 -14 102 -20 160 -6 58 -15 143 -20 190 -21 195 -41 502 -49 755 -7 247
-10 275 -31 328 -12 31 -27 57 -33 57 -7 0 -8 -114 -3 -347 7 -375 27 -635 80
-1048 18 -141 83 -527 95 -570 5 -16 14 -57 21 -90 42 -203 200 -788 241 -891
6 -16 40 -110 74 -210 68 -196 202 -547 241 -632 44 -97 27 -98 -41 -1 -27 39
-70 95 -95 124 -51 59 -103 127 -140 180 -14 20 -37 51 -51 68 -14 18 -53 73
-87 122 -79 117 -159 205 -170 187 -7 -10 -15 -6 -35 14 -15 15 -31 24 -35 20
-8 -9 -8 -82 1 -149 7 -57 -1 -55 -32 8 -21 43 -120 315 -142 393 -5 17 -13
47 -19 65 -51 174 -97 335 -112 392 -5 22 -16 63 -23 90 -25 91 -33 129 -59
265 -39 200 -57 310 -62 360 -2 25 -7 52 -10 60 -3 8 -10 51 -16 95 -5 44 -14
109 -19 145 -47 320 -87 812 -101 1250 -3 86 14 585 24 685 6 66 12 156 14
200 8 166 23 355 31 375 3 8 11 69 19 135 21 190 65 489 94 635 6 30 17 91 25
135 8 44 19 101 25 128 28 131 57 270 70 337 4 25 22 99 40 165 17 66 35 136
40 155 4 19 15 60 25 90 9 30 20 74 25 98 5 23 13 50 18 60 5 9 15 44 22 77 7
33 30 112 51 175 21 63 53 165 73 225 19 61 54 162 76 225 23 63 55 151 70
195 16 44 39 105 51 135 12 30 30 78 40 105 9 28 25 64 33 80 9 17 16 34 16
39 0 9 41 105 85 201 13 28 40 88 60 135 39 88 87 193 113 245 8 17 25 53 39
80 13 28 31 64 39 80 9 17 44 84 77 150 33 66 70 136 82 155 12 19 44 76 70
125 81 150 86 159 317 535 69 113 244 373 343 511 145 202 368 495 386 509 4
3 36 42 71 87 189 237 553 627 770 824 121 110 533 436 659 522 19 13 93 63
164 112 243 166 420 277 595 372 30 17 71 39 90 51 170 99 654 340 820 407
154 62 468 182 522 199 24 8 90 31 148 51 58 20 128 42 155 50 28 7 122 35
210 60 217 64 652 170 770 189 22 4 54 12 70 18 42 17 138 79 131 85 -7 7
-151 -21 -406 -77 -52 -12 -113 -25 -135 -30 -95 -20 -257 -61 -340 -85 -49
-15 -106 -31 -125 -37 -19 -5 -57 -18 -85 -28 -27 -10 -115 -39 -195 -64 -410
-131 -761 -275 -1185 -488 -242 -122 -257 -130 -512 -279 -232 -136 -319 -189
-508 -311 -178 -116 -194 -117 -93 -9 164 175 226 228 429 363 256 170 347
229 379 245 14 7 45 26 70 43 25 16 61 38 80 48 19 10 64 36 100 57 207 119
664 322 970 430 118 41 173 61 275 96 44 16 127 42 185 59 58 17 125 37 150
45 130 39 711 176 870 205 333 61 675 99 1107 125 174 11 798 8 1001 -5 196
-11 205 -11 272 9 72 22 91 41 43 41 -16 0 -93 5 -173 10 -80 5 -188 12 -240
15 -120 7 -596 8 -715 1 -49 -3 -180 -10 -290 -16 -110 -6 -229 -15 -265 -20
-36 -5 -99 -12 -140 -15 -73 -5 -131 -14 -405 -56 -205 -32 -615 -116 -725
-148 -36 -11 -119 -33 -185 -51 -165 -43 -371 -103 -553 -162 -158 -51 -214
-59 -157 -23 17 10 68 44 113 74 46 31 101 67 122 81 21 14 65 43 98 65 33 22
75 49 94 60 18 11 51 31 73 44 22 13 49 29 60 35 35 20 78 49 148 99 48 36 64
53 57 62 -7 8 -2 19 15 35 l26 24 -26 13 c-34 18 -33 51 2 59 15 4 33 13 40
19 7 7 42 18 78 25 36 7 68 16 71 21 3 5 16 9 30 9 13 0 32 4 42 9 33 16 120
41 144 41 13 0 28 4 34 8 13 11 70 30 130 42 54 12 65 15 234 58 142 36 280
67 385 87 83 15 129 24 255 49 150 30 197 37 295 46 55 5 152 16 215 24 187
24 600 47 815 46 313 -3 698 -27 805 -51 25 -5 77 -10 115 -10 39 -1 84 -5
100 -9 39 -11 161 -31 250 -41 68 -8 134 -18 260 -39 33 -6 74 -13 90 -15 46
-8 110 -21 220 -45 55 -12 111 -24 125 -26 48 -6 215 -46 232 -55 10 -5 29 -9
44 -9 14 0 91 -18 171 -40 81 -22 152 -40 159 -40 7 0 48 -11 91 -24 43 -13
112 -34 153 -46 71 -21 116 -34 275 -82 39 -11 86 -27 105 -34 19 -8 82 -30
140 -50 58 -20 155 -54 215 -76 61 -21 119 -41 130 -44 11 -3 29 -10 40 -14
63 -27 165 -69 195 -80 19 -7 49 -18 65 -25 17 -7 75 -32 130 -55 93 -39 125
-53 247 -109 26 -11 49 -21 52 -21 15 0 398 -188 601 -296 190 -100 221 -117
247 -135 14 -11 29 -19 33 -19 4 0 32 -15 62 -32 31 -18 75 -44 98 -58 111
-64 255 -153 415 -258 206 -134 171 -110 362 -247 261 -187 367 -267 537 -406
90 -74 178 -145 195 -158 46 -37 167 -142 291 -255 454 -413 847 -837 1090
-1176 59 -83 105 -151 300 -450 38 -58 86 -139 224 -377 75 -130 194 -361 259
-503 16 -36 60 -130 96 -210 37 -80 71 -154 75 -165 5 -11 16 -36 24 -55 16
-36 122 -301 150 -376 40 -104 169 -526 214 -694 37 -144 74 -294 93 -385 11
-55 31 -147 44 -205 13 -58 29 -141 36 -185 6 -44 16 -102 21 -130 13 -76 39
-248 53 -360 10 -75 21 -116 44 -162 44 -85 55 -89 47 -17 -16 147 -67 512
-75 544 -5 19 -12 58 -15 85 -7 55 -41 240 -54 295 -5 19 -18 71 -29 115 -11
44 -35 139 -52 210 -176 731 -461 1447 -900 2257 -49 92 -90 172 -90 178 0 13
255 -244 400 -402 52 -57 134 -142 183 -190 72 -71 93 -87 111 -82 14 3 27 -1
35 -10 8 -9 17 -16 22 -16 12 0 12 79 0 116 -5 16 -12 42 -16 57 l-6 29 26
-19 c14 -10 42 -47 62 -83 20 -36 48 -83 63 -105 14 -22 41 -74 59 -115 18
-41 41 -86 50 -100 9 -14 31 -55 49 -92 17 -36 36 -69 42 -73 5 -3 10 -12 10
-20 0 -8 18 -51 39 -97 22 -46 56 -123 76 -173 38 -94 47 -114 114 -257 23
-48 41 -92 41 -99 0 -14 46 -152 60 -178 4 -9 20 -50 35 -91 15 -41 31 -84 36
-95 17 -38 39 -110 39 -128 0 -10 6 -28 14 -40 7 -12 19 -44 25 -72 11 -48 31
-99 51 -137 6 -10 10 -26 10 -36 0 -11 9 -45 21 -78 11 -32 24 -77 29 -99 15
-70 48 -183 61 -207 7 -13 18 -45 24 -73 9 -36 16 -49 28 -47 12 2 14 -5 10
-40 -8 -58 9 -40 24 25 9 42 9 57 -3 79 -8 15 -14 42 -14 61 0 20 -10 49 -24
70 -26 37 -46 127 -29 127 13 0 33 -45 33 -75 0 -26 17 -70 35 -95 24 -32 37
-97 32 -163 -3 -37 -2 -69 2 -72 5 -2 11 -24 14 -47 12 -83 26 -146 35 -164
16 -32 32 -89 33 -120 0 -16 6 -45 13 -64 l13 -35 8 43 c5 32 11 42 23 40 11
-2 22 -32 37 -103 13 -55 32 -125 43 -155 25 -68 54 -251 42 -265 -14 -17 -14
-78 -1 -225 8 -83 20 -151 31 -177 10 -23 16 -51 13 -62 -4 -15 -1 -21 11 -21
11 0 16 -9 16 -30 0 -16 -4 -30 -10 -30 -5 0 -10 -9 -10 -20 0 -22 -20 -26
-38 -8 -29 29 -9 -183 24 -259 8 -17 14 -45 14 -63 0 -17 5 -40 11 -51 6 -11
11 -64 12 -117 0 -60 2 -75 4 -39 7 99 42 61 49 -53 3 -56 16 -94 36 -108 14
-10 18 -26 18 -66 0 -51 32 -148 43 -129 2 4 8 35 12 67 4 33 10 69 15 80 7
20 8 19 15 -6 9 -34 21 -36 29 -4 7 28 44 285 65 446 5 41 17 129 26 195 9 66
20 166 25 223 10 115 15 129 37 111 16 -14 19 -11 48 43 18 33 20 189 4 287
-17 102 -39 213 -49 241 -4 14 -16 61 -25 105 -16 82 -59 249 -100 390 -13 44
-33 114 -45 155 -12 41 -27 91 -34 110 -8 19 -28 82 -46 140 -17 58 -35 114
-39 125 -9 24 -19 50 -76 216 -46 132 -139 379 -155 407 -5 10 -32 73 -61 142
-28 69 -57 136 -65 150 -7 14 -21 43 -30 65 -9 22 -41 90 -71 152 -29 62 -53
115 -53 118 0 19 -224 466 -300 600 -31 55 -60 107 -64 115 -3 8 -31 53 -61
100 -30 47 -65 105 -79 130 -13 25 -49 81 -78 125 -133 195 -201 294 -238 345
-22 30 -51 71 -65 90 -123 175 -252 340 -539 688 -229 279 -761 824 -1033
1058 -48 42 -92 82 -98 88 -12 16 -81 71 -254 206 -248 194 -336 258 -508 370
-76 49 -169 111 -208 137 -104 72 -207 133 -235 140 -14 4 -46 19 -71 35 -45
28 -79 36 -79 20 0 -10 119 -125 215 -207 38 -33 90 -78 115 -101 25 -22 86
-74 135 -116 50 -41 157 -140 239 -219 82 -79 159 -151 171 -159 37 -25 234
-218 464 -453 57 -59 108 -107 113 -107 4 0 8 -6 8 -12 0 -7 13 -27 28 -45 15
-18 45 -53 67 -79 22 -26 60 -66 84 -88 61 -57 81 -78 81 -88 0 -4 9 -12 20
-18 17 -9 19 -8 13 7 -3 10 -12 23 -20 30 -8 6 -13 17 -11 24 3 8 12 0 23 -19
11 -18 22 -32 26 -32 9 0 134 -150 149 -180 13 -24 12 -24 -6 -10 -31 24 -98
101 -126 144 -4 6 -10 8 -13 4 -3 -3 1 -13 10 -21 8 -9 15 -20 15 -24 0 -5 16
-24 35 -43 19 -19 35 -40 35 -47 0 -8 7 -16 15 -19 8 -3 35 -34 60 -68 25 -33
68 -88 95 -121 121 -148 258 -328 325 -429 17 -25 61 -91 99 -148 38 -57 79
-119 92 -138 74 -112 136 -295 107 -313 -5 -3 -22 5 -37 18 -15 13 -33 22 -39
19 -7 -2 -40 18 -74 46 -34 27 -65 50 -69 50 -10 0 -486 489 -540 555 -26 33
-80 105 -119 160 -39 55 -89 125 -112 155 -24 30 -96 127 -161 215 -65 88
-149 196 -186 240 -37 44 -84 100 -104 125 -256 309 -638 694 -1126 1134 -67
60 -151 138 -189 173 -202 189 -550 456 -872 670 -110 73 -225 150 -255 171
-173 121 -252 173 -310 206 -36 21 -84 49 -107 64 -158 102 -340 211 -471 280
-138 75 -357 182 -369 182 -15 0 -522 255 -540 273 -13 11 -23 29 -23 39 0 20
3 22 28 9 9 -5 37 -15 62 -21 101 -27 360 -118 402 -141 10 -5 26 -9 37 -9 11
0 32 -6 48 -14 15 -8 39 -19 53 -24 52 -21 95 -37 100 -37 17 -2 74 -24 155
-61 17 -7 72 -30 123 -50 51 -20 95 -41 98 -46 3 -4 13 -8 23 -8 9 0 35 -8 57
-19 21 -10 77 -35 124 -55 47 -20 103 -45 125 -56 83 -39 152 -69 202 -89 66
-26 611 -296 637 -316 11 -8 27 -15 36 -15 9 0 25 -9 35 -20 10 -11 23 -20 29
-20 5 0 58 -28 116 -63 58 -35 139 -83 180 -107 137 -79 332 -203 555 -350
204 -136 313 -204 522 -324 45 -26 121 -76 170 -111 265 -194 323 -237 416
-309 152 -118 352 -249 433 -285 24 -11 44 -17 44 -14 0 3 -13 27 -28 52 -16
25 -31 54 -35 63 -17 46 -214 273 -363 419 -202 197 -252 247 -369 368 -126
130 -400 372 -580 511 -32 25 -90 72 -129 105 -39 33 -98 83 -130 110 -62 52
-157 123 -253 189 -31 22 -52 41 -45 44 31 10 259 -145 732 -498 91 -68 440
-362 565 -475 50 -45 128 -115 175 -155 134 -115 348 -319 706 -673 319 -316
374 -368 374 -350 0 30 -263 317 -605 658 -340 341 -641 613 -985 891 -156
126 -553 418 -667 490 -32 20 -125 82 -208 137 -82 55 -222 142 -310 195 -88
52 -184 110 -212 129 -29 18 -55 33 -59 33 -3 0 -24 13 -47 28 -160 108 -928
497 -1172 594 -27 11 -55 24 -60 28 -6 5 -36 18 -68 30 -33 12 -71 28 -85 36
-15 8 -32 14 -39 14 -7 0 -36 11 -65 24 -29 13 -123 49 -208 80 -85 31 -170
64 -188 72 -18 7 -41 14 -50 14 -10 0 -22 4 -27 9 -6 5 -26 14 -45 19 -19 6
-82 27 -140 47 -115 41 -288 95 -420 131 -47 13 -157 43 -245 69 -266 75 -606
161 -740 186 -27 5 -68 13 -90 18 -255 57 -829 148 -1020 161 -289 21 -505 47
-505 61 0 5 -45 9 -99 9 -80 0 -100 -3 -105 -15z m779 -569 c73 -5 125 -16
125 -26 0 -4 -7 -13 -15 -20 -12 -10 -20 -10 -38 -1 -15 8 -31 9 -47 3 -14 -5
-34 -6 -45 -1 -11 4 -41 8 -67 8 -63 1 -152 21 -141 31 8 9 112 18 148 13 11
-2 47 -5 80 -7z m-505 -226 c58 -12 138 -24 178 -27 65 -4 91 -15 60 -25 -7
-3 -3 -13 12 -28 l23 -23 -109 7 c-60 4 -127 11 -149 16 -48 11 -124 31 -145
38 -8 3 -40 12 -70 19 -53 13 -77 19 -128 29 -13 2 -20 9 -17 14 10 17 231 3
345 -20z m793 -122 c15 -6 27 -14 27 -18 0 -9 -88 -2 -115 9 -71 30 -71 31 -5
25 36 -3 77 -10 93 -16z m240 -5 c20 -3 37 -10 37 -15 0 -15 -185 0 -217 17
l-26 14 39 3 c21 2 59 -1 84 -5 25 -5 62 -11 83 -14z m149 -15 c-9 -9 -15 -9
-24 0 -9 9 -7 12 12 12 19 0 21 -3 12 -12z m158 -3 c86 -1 156 -14 340 -63 37
-10 167 -65 365 -154 66 -30 188 -81 270 -113 482 -187 624 -248 920 -394 325
-161 549 -280 775 -411 69 -41 172 -100 230 -132 127 -71 428 -271 490 -325
82 -72 219 -172 383 -280 89 -58 198 -134 242 -167 131 -99 426 -348 645 -545
299 -268 740 -705 740 -733 0 -14 -20 2 -125 103 -102 97 -270 250 -360 324
-32 28 -68 59 -80 70 -43 42 -286 237 -499 400 -235 180 -799 562 -968 655
-14 8 -64 37 -110 64 -312 183 -602 335 -903 470 -82 38 -157 72 -165 77 -8 5
-26 14 -40 20 -14 6 -43 19 -65 30 -22 10 -44 19 -49 19 -5 0 -34 12 -65 26
-31 14 -65 30 -76 34 -130 53 -307 123 -375 149 -47 18 -100 39 -118 47 -18 8
-39 14 -47 14 -9 0 -23 4 -33 10 -21 12 -95 38 -141 50 -18 5 -38 13 -44 19
-6 6 -23 11 -37 11 -14 0 -30 4 -35 9 -6 5 -37 16 -70 26 -33 9 -76 23 -95 30
-19 8 -51 18 -70 24 -19 6 -75 22 -125 36 -49 15 -108 31 -130 36 -22 6 -53
15 -70 21 -16 5 -41 12 -55 15 -14 2 -34 8 -45 13 -11 5 -33 11 -50 14 -35 6
-86 18 -170 41 -33 9 -71 18 -85 21 -14 3 -34 9 -45 14 -11 5 -33 11 -50 13
-28 4 -219 45 -313 67 -23 5 -55 10 -72 10 -16 0 -31 4 -34 9 -3 4 -27 11 -53
14 -27 4 -70 11 -98 17 -82 16 -294 51 -375 60 -41 5 -84 11 -95 14 -11 2 -78
12 -150 21 -71 8 -155 20 -186 25 -30 6 -83 10 -116 10 -34 0 -74 5 -90 11
-25 10 -70 14 -173 18 -26 1 -31 4 -20 11 15 9 324 7 435 -4 33 -3 107 -8 165
-11 58 -3 159 -10 225 -16 152 -14 191 -17 289 -24 43 -3 83 -8 88 -11 6 -4
36 -8 67 -10 31 -3 76 -7 101 -10 25 -3 59 -7 75 -9 17 -2 95 -10 175 -19 80
-9 169 -21 199 -26 79 -14 89 -14 71 4 -12 12 -169 72 -245 93 -11 3 -27 11
-35 18 -8 7 -43 20 -77 30 -70 21 -81 35 -28 35 20 0 48 6 64 14 22 12 36 13
70 4 32 -8 53 -8 84 2 l42 12 -56 18 c-75 23 -88 31 -63 40 10 4 23 5 29 2 5
-3 48 -7 95 -7z m-682 -2 c-16 -2 -40 -2 -55 0 -16 2 -3 4 27 4 30 0 43 -2 28
-4z m107 -23 c4 -6 -8 -10 -29 -10 -19 0 -38 5 -41 10 -4 6 8 10 29 10 19 0
38 -4 41 -10z m98 -27 c-7 -2 -19 -2 -25 0 -7 3 -2 5 12 5 14 0 19 -2 13 -5z
m132 -22 c10 -17 -11 -21 -31 -6 -18 14 -18 14 3 15 12 0 24 -4 28 -9z m-5151
-612 c-9 -15 -205 -108 -245 -116 -57 -11 -23 15 94 72 106 52 167 70 151 44z
m126 -184 c0 -9 -11 -20 -25 -27 -13 -6 -28 -23 -34 -37 -16 -44 -145 -145
-406 -318 -266 -176 -382 -243 -541 -313 -54 -23 -124 -56 -154 -71 -30 -16
-136 -68 -235 -115 -99 -47 -262 -131 -363 -186 -189 -104 -228 -114 -172 -47
19 24 27 43 23 57 -3 13 1 28 11 37 9 9 16 21 16 26 0 15 -57 10 -117 -11 -32
-11 -63 -20 -70 -20 -26 0 18 49 80 89 34 22 80 53 102 69 22 15 71 45 110 66
38 21 83 49 98 62 16 13 33 24 38 24 5 0 39 19 76 43 66 42 165 96 383 210
199 103 305 157 360 181 119 52 158 69 225 101 39 18 95 43 125 55 30 12 70
28 88 36 18 8 68 27 110 43 42 16 95 35 117 44 55 21 155 22 155 2z m8814
-204 c34 -15 90 -40 126 -56 82 -34 394 -188 480 -236 36 -20 119 -64 185 -99
66 -34 131 -70 145 -79 14 -9 43 -25 65 -36 22 -10 51 -26 65 -35 14 -9 54
-27 90 -39 58 -21 105 -42 245 -114 105 -53 241 -164 233 -189 -11 -30 -109 4
-257 91 -116 68 -139 81 -326 196 -55 34 -107 65 -115 68 -8 4 -28 16 -45 26
-60 37 -273 155 -380 210 -60 32 -119 62 -130 69 -11 6 -65 33 -120 60 -222
108 -368 192 -335 192 7 0 40 -13 74 -29z m-11064 -1062 c-6 -10 -15 -21 -20
-24 -6 -3 -10 -19 -10 -35 0 -35 -44 -75 -191 -176 -275 -187 -278 -190 -719
-518 -96 -72 -234 -177 -307 -233 -72 -57 -136 -103 -142 -103 -15 0 -14 23 1
38 9 9 9 12 -2 12 -9 0 -8 5 5 20 10 11 23 20 28 20 6 0 2 -6 -9 -14 -10 -8
-16 -18 -12 -22 14 -13 49 28 42 49 -4 14 11 35 67 89 77 74 109 96 109 78 0
-6 -23 -33 -52 -60 -29 -27 -49 -52 -46 -55 3 -3 37 25 76 62 119 115 295 279
345 322 27 23 63 56 81 74 41 42 78 72 153 125 35 24 66 49 70 56 5 7 71 61
148 119 168 126 294 196 354 195 36 0 39 -2 31 -19z m-181 -295 c-26 -29 -168
-150 -239 -204 -411 -314 -1065 -931 -1400 -1320 -30 -35 -77 -90 -105 -121
-77 -87 -127 -148 -155 -184 -14 -18 -70 -88 -125 -156 -145 -180 -168 -210
-326 -436 -42 -60 -84 -115 -93 -122 -9 -7 -16 -19 -16 -25 0 -6 -15 -30 -33
-53 -78 -102 -263 -375 -359 -528 -44 -71 -100 -159 -123 -195 -44 -68 -245
-424 -245 -434 0 -3 -35 -63 -78 -133 -43 -71 -110 -191 -149 -268 -39 -77
-98 -192 -133 -255 -34 -63 -73 -140 -87 -170 -41 -87 -111 -248 -144 -330
-53 -129 -60 -145 -69 -162 -6 -10 -10 -26 -10 -37 0 -23 -25 -47 -35 -31 -7
11 9 68 31 113 8 16 14 39 14 52 0 13 4 26 9 30 5 3 15 30 21 60 6 30 16 57
21 60 5 4 9 19 9 34 0 15 4 31 8 37 5 5 19 43 32 84 12 41 40 128 62 193 39
115 43 156 9 108 -24 -35 -99 -170 -122 -220 -14 -31 -23 -41 -30 -34 -8 8 -7
18 2 34 7 13 13 33 14 44 1 11 17 58 34 105 18 47 40 112 50 146 10 33 23 69
29 80 6 10 31 80 57 154 26 74 54 153 64 175 10 22 26 63 36 90 17 49 26 70
77 185 42 94 288 490 411 660 93 130 308 410 346 453 43 48 69 51 41 5 -22
-36 -26 -58 -10 -58 13 0 143 165 340 430 91 123 170 228 176 234 5 6 32 38
58 71 27 33 65 78 85 100 20 22 52 60 71 85 65 85 170 192 267 273 54 44 184
167 288 272 205 206 271 265 469 426 226 183 592 462 739 563 51 35 119 82
152 105 68 48 102 56 64 15z m-1011 -111 c-81 -85 -215 -227 -307 -326 -24
-26 -69 -79 -100 -117 -31 -37 -110 -133 -177 -212 -66 -78 -158 -192 -204
-253 -46 -60 -95 -124 -109 -140 -73 -87 -364 -534 -488 -750 -77 -134 -92
-156 -288 -397 -148 -183 -190 -238 -269 -355 -68 -101 -105 -143 -106 -121 0
29 203 435 295 588 18 30 45 80 60 110 38 76 297 466 418 630 265 358 527 662
831 965 241 240 492 465 519 465 5 0 -28 -39 -75 -87z m693 -250 c-76 -85
-182 -184 -296 -278 -75 -62 -207 -175 -404 -349 -63 -55 -192 -177 -287 -271
-94 -93 -184 -181 -199 -195 -28 -25 -28 -25 -16 -2 7 13 61 74 119 135 59 62
125 132 147 156 56 61 489 468 614 576 186 162 386 323 389 314 2 -5 -28 -44
-67 -86z m-571 -72 c0 -5 -7 -12 -16 -15 -24 -9 -28 -7 -14 9 14 17 30 20 30
6z m-367 -371 c-3 -11 -10 -20 -17 -20 -6 0 -17 -9 -24 -20 -7 -11 -17 -20
-23 -20 -5 0 5 18 22 40 35 44 50 51 42 20z m15188 -377 c13 -15 12 -15 -8 -4
-24 12 -29 21 -14 21 5 0 15 -7 22 -17z m-15541 -388 c-18 -19 -36 -32 -39
-30 -2 3 11 21 29 40 18 19 36 32 39 30 2 -3 -11 -21 -29 -40z m108 23 c-7
-13 -45 -61 -84 -108 -85 -103 -271 -342 -335 -431 -25 -35 -79 -109 -119
-164 -95 -130 -404 -596 -471 -711 -96 -163 -289 -510 -364 -654 -35 -67 -171
-353 -235 -495 -40 -88 -78 -173 -86 -189 -8 -16 -14 -33 -14 -37 0 -5 -12
-34 -26 -66 -58 -129 -104 -249 -170 -438 -15 -44 -34 -89 -41 -100 -7 -11
-13 -27 -13 -37 0 -9 -6 -32 -14 -50 -22 -51 -42 -108 -60 -168 -8 -30 -32
-102 -51 -160 -40 -117 -66 -203 -101 -333 -13 -49 -26 -92 -29 -97 -3 -5 -9
-28 -14 -52 -5 -24 -22 -86 -37 -138 -15 -52 -29 -112 -31 -133 -3 -20 -9 -40
-14 -43 -5 -3 -9 -16 -9 -30 0 -14 -6 -46 -14 -72 -13 -46 -43 -180 -65 -292
-6 -30 -13 -68 -16 -85 -10 -49 -33 -174 -49 -265 -8 -47 -20 -110 -26 -140
-6 -30 -12 -66 -13 -80 -2 -14 -6 -43 -10 -65 -18 -92 -29 -169 -48 -335 -12
-96 -25 -204 -29 -240 -19 -143 -56 -765 -66 -1090 -4 -173 -7 -200 -19 -189
-10 10 -19 385 -19 754 1 348 4 515 19 835 3 52 7 155 10 228 3 74 8 144 11
157 8 31 -14 42 -25 13 -5 -13 -21 -73 -35 -133 -15 -61 -31 -126 -36 -146
-12 -43 -40 -215 -45 -274 -2 -22 -8 -67 -14 -100 -12 -68 -51 -469 -51 -530
0 -22 -7 -53 -15 -69 -8 -15 -15 -43 -15 -61 0 -18 -5 -35 -11 -37 -18 -6 -22
-125 -9 -223 7 -49 12 -112 11 -140 -4 -266 -7 -309 -17 -312 -20 -7 -23 53
-24 467 -1 370 2 446 16 490 3 8 8 89 10 180 6 202 9 248 24 375 7 55 13 120
14 145 2 25 8 61 14 80 6 19 10 49 9 65 0 17 5 59 12 95 7 36 19 99 26 140 7
41 19 102 25 135 6 33 18 96 26 140 8 44 19 94 24 110 5 17 14 57 20 90 21
117 28 150 40 190 7 22 14 58 17 80 2 22 12 56 20 75 9 19 22 60 29 90 13 57
27 108 62 220 11 36 30 99 43 140 23 79 26 89 82 240 19 52 39 111 45 130 6
19 23 67 37 105 15 39 29 79 32 90 6 21 159 391 203 490 5 11 20 45 33 76 151
341 392 808 491 953 23 33 57 83 78 112 49 71 167 272 211 359 36 72 131 222
212 335 159 223 207 289 298 409 150 197 329 421 442 556 152 181 337 383 353
385 1 0 -3 -10 -10 -22z m15772 -37 c-1 -13 -3 -13 -15 3 -19 26 -19 42 0 26
8 -7 15 -20 15 -29z m-15974 -89 c-18 -16 -18 -16 -6 6 6 13 14 21 18 18 3 -4
-2 -14 -12 -24z m16258 -134 c18 -18 69 -80 115 -138 45 -58 88 -112 94 -120
59 -73 234 -311 276 -375 30 -44 62 -92 72 -107 72 -105 81 -169 13 -95 -42
45 -160 208 -283 391 -57 86 -62 93 -136 190 -177 233 -212 286 -189 286 4 0
21 -15 38 -32z m246 -434 c0 -8 5 -14 10 -14 6 0 10 -8 10 -17 0 -15 -4 -13
-20 7 -21 26 -27 56 -10 45 6 -3 10 -13 10 -21z m45 -64 c3 -5 1 -10 -4 -10
-6 0 -11 5 -11 10 0 6 2 10 4 10 3 0 8 -4 11 -10z m-17486 -142 c-9 -16 -14
-19 -17 -9 -2 7 2 17 9 22 20 13 21 11 8 -13z m18221 -1146 c-1 -14 -40 43
-40 58 0 8 9 0 20 -18 11 -18 20 -36 20 -40z m570 -1147 c27 -55 54 -119 61
-142 12 -42 5 -103 -10 -87 -8 9 -49 102 -76 174 -8 19 -25 65 -40 103 -14 37
-23 73 -19 79 10 16 28 -11 84 -127z m-85 -35 c5 -25 4 -32 -4 -25 -6 6 -14
26 -17 45 -5 24 -3 32 4 25 5 -5 13 -26 17 -45z m12 -77 c-3 -10 -5 -4 -5 12
0 17 2 24 5 18 2 -7 2 -21 0 -30z m-19997 -358 c0 -16 -6 -25 -15 -25 -16 0
-19 9 -9 34 9 25 24 19 24 -9z m20600 -849 c12 -59 10 -656 -2 -656 -5 0 -8 8
-9 18 0 9 -6 1 -13 -18 l-13 -34 -16 24 c-8 14 -19 39 -22 55 -4 17 -11 41
-15 55 -12 34 -20 227 -9 209 5 -8 9 -24 9 -36 0 -12 4 -24 9 -27 5 -4 12 33
15 81 14 199 27 339 32 361 10 36 22 25 34 -32z m-21599 -123 c-9 -16 -10 -14
-11 12 0 21 3 26 11 18 8 -8 8 -16 0 -30z m-1 -27 c0 -3 -4 -8 -10 -11 -5 -3
-10 -1 -10 4 0 6 5 11 10 11 6 0 10 -2 10 -4z m21570 -977 c0 -31 -4 -48 -10
-44 -5 3 -10 29 -10 56 0 31 4 48 10 44 6 -3 10 -29 10 -56z m60 -42 c-1 -74
-2 -80 -15 -63 -16 21 -19 58 -9 118 11 63 24 32 24 -55z m34 -172 c3 -33 2
-76 -2 -95 -9 -34 -9 -34 -17 25 -8 68 -10 88 -7 130 4 46 19 11 26 -60z m93
33 c-3 -8 -6 -5 -6 6 -1 11 2 17 5 13 3 -3 4 -12 1 -19z m-21230 -2010 c-3 -7
-5 -2 -5 12 0 14 2 19 5 13 2 -7 2 -19 0 -25z m54 -578 c5 -14 11 -50 14 -80
2 -30 7 -77 11 -105 9 -72 -9 -46 -29 41 -10 40 -16 103 -16 140 1 38 3 60 6
49 2 -11 8 -31 14 -45z m1041 -2405 c11 -14 26 -25 35 -25 20 0 150 -123 185
-175 15 -22 78 -104 140 -182 200 -252 289 -380 374 -541 25 -48 54 -100 65
-117 10 -16 32 -55 49 -85 282 -514 629 -1013 1046 -1505 398 -468 557 -647
744 -836 237 -238 361 -352 641 -586 74 -62 159 -135 189 -163 48 -44 190
-160 295 -240 18 -14 77 -61 131 -106 169 -138 396 -297 628 -439 270 -166
426 -267 426 -276 0 -5 -6 -9 -14 -9 -15 0 -276 100 -351 135 -27 12 -75 33
-105 46 -85 35 -401 195 -443 224 -21 14 -40 25 -43 25 -2 0 -63 34 -135 75
-71 41 -133 75 -138 75 -4 0 -16 9 -26 20 -10 11 -22 20 -27 20 -10 0 -222
126 -329 196 -394 256 -572 387 -694 509 -38 39 -123 110 -188 159 -229 172
-445 389 -872 875 -82 93 -108 131 -90 131 4 0 55 -42 113 -93 98 -86 294
-252 396 -335 23 -19 61 -46 86 -60 25 -14 66 -41 92 -60 40 -28 49 -31 54
-18 4 10 -15 40 -51 83 -81 96 -237 269 -345 383 -75 79 -213 242 -285 335
-16 22 -53 64 -81 95 -61 66 -245 287 -294 353 -41 56 -157 206 -200 259 -17
20 -30 39 -30 43 0 11 -114 180 -140 206 -32 34 -42 47 -74 97 -27 43 -41 52
-48 30 -2 -6 -16 4 -30 23 -40 52 -110 170 -105 176 7 6 47 -34 47 -47 0 -5 4
-10 9 -10 5 0 12 -8 15 -17 3 -10 12 -27 19 -38 7 -11 18 -31 26 -43 7 -13 15
-22 17 -19 7 7 -32 79 -91 169 -116 178 -105 162 -194 308 -36 58 -83 134
-106 170 -23 36 -49 81 -57 100 -45 100 -63 136 -74 147 -6 7 -35 61 -64 120
-29 59 -62 128 -75 153 -29 58 -75 203 -75 238 0 38 11 72 22 72 6 0 19 -11
30 -25z m498 -1195 c-1 -12 -4 -11 -15 4 -8 10 -12 23 -8 29 7 11 23 -12 23
-33z m-443 -357 c43 -68 173 -323 164 -323 -3 0 -19 21 -36 48 -16 26 -32 49
-36 52 -3 3 -25 39 -49 80 -103 181 -111 200 -90 200 6 0 27 -26 47 -57z m663
31 c0 -8 -4 -12 -10 -9 -5 3 -10 10 -10 16 0 5 5 9 10 9 6 0 10 -7 10 -16z
m74 -100 c8 -21 -7 -17 -21 6 -11 16 -10 18 1 14 8 -3 17 -12 20 -20z m-124
-325 c0 -6 -4 -7 -10 -4 -5 3 -10 11 -10 16 0 6 5 7 10 4 6 -3 10 -11 10 -16z
m74 -96 c26 -43 32 -63 19 -63 -8 0 -83 121 -83 134 0 13 37 -28 64 -71z
m-449 -194 c11 -17 -1 -21 -15 -4 -8 9 -8 15 -2 15 6 0 14 -5 17 -11z m30 -39
c3 -5 1 -10 -4 -10 -6 0 -11 5 -11 10 0 6 2 10 4 10 3 0 8 -4 11 -10z m72 -72
c287 -304 398 -418 554 -568 138 -132 206 -207 280 -305 99 -132 136 -176 316
-377 110 -121 626 -646 707 -718 72 -64 40 -60 -46 5 -249 192 -794 726 -1122
1100 -53 61 -162 186 -244 278 -81 92 -160 185 -177 206 -58 74 -211 264 -272
339 -35 42 -63 80 -63 84 0 19 21 5 67 -44z m15733 -1952 c0 -16 -356 -263
-365 -254 -14 13 13 41 88 91 45 30 105 67 132 82 28 15 68 41 89 56 37 27 56
35 56 25z m-2189 -1154 c-35 -25 -110 -52 -116 -42 -6 10 51 40 76 40 10 0 21
5 24 10 3 6 14 10 23 9 13 0 12 -4 -7 -17z m-156 -62 c-3 -5 -11 -10 -16 -10
-6 0 -7 5 -4 10 3 6 11 10 16 10 6 0 7 -4 4 -10z m-285 -61 c-37 -23 -105 -50
-265 -104 -55 -19 -138 -48 -185 -64 -47 -16 -110 -37 -140 -45 -200 -54 -297
-79 -380 -97 -52 -11 -113 -25 -135 -29 -88 -20 -149 -29 -154 -25 -11 12 21
25 134 53 66 17 156 40 200 52 44 12 112 30 150 40 134 34 191 51 300 87 61
19 137 44 170 54 33 10 112 36 175 58 63 22 126 40 140 40 23 1 23 0 -10 -20z
m-4589 -639 c10 0 19 -4 19 -9 0 -8 -26 -9 -85 -2 -5 1 -3 6 5 11 8 5 21 8 28
5 8 -3 22 -5 33 -5z m247 -25 c31 -11 -3 -25 -46 -21 -26 3 -73 8 -104 11 -32
4 -58 9 -58 13 0 7 186 4 208 -3z m222 -22 l35 -6 -30 -9 c-30 -9 -161 -2
-180 10 -30 18 77 22 175 5z m148 -20 c2 -9 -10 -13 -42 -13 -43 0 -63 10 -49
24 12 11 86 2 91 -11z m157 -13 c-3 -5 -12 -7 -20 -3 -21 7 -19 13 6 13 11 0
18 -4 14 -10z m-2485 -35 c70 -5 188 -24 262 -41 37 -9 75 -14 83 -10 9 3 26
1 38 -6 12 -6 40 -13 62 -14 22 -1 74 -7 115 -13 41 -7 136 -14 210 -17 250
-10 395 -22 475 -38 44 -9 116 -18 160 -22 44 -3 98 -9 120 -14 22 -5 67 -12
100 -15 33 -3 67 -7 75 -9 8 -2 56 -6 105 -10 126 -9 205 -27 205 -44 0 -12
-10 -13 -47 -8 -27 3 -120 9 -208 11 -350 11 -665 30 -729 45 -27 6 -72 10
-100 9 -28 -1 -76 3 -106 9 -95 19 -198 32 -256 32 -34 0 -64 6 -80 16 -16 11
-36 15 -57 11 -18 -3 -50 1 -72 9 -22 7 -54 14 -71 14 -17 0 -51 7 -74 15 -23
8 -60 15 -81 15 -21 0 -40 4 -43 9 -3 4 -30 11 -60 15 -31 3 -66 10 -78 15
-13 5 -31 12 -42 15 -15 5 -16 9 -5 22 8 10 20 13 33 9 12 -4 41 -9 66 -10z"/>
<path d="M5520 19950 c-13 -11 -19 -20 -14 -20 14 1 48 29 42 35 -2 3 -15 -4
-28 -15z"/>
<path d="M2221 12406 c-1 -42 2 -57 9 -50 8 8 8 27 2 60 l-10 49 -1 -59z"/>
<path d="M2225 12319 c-4 -12 -2 -26 4 -32 8 -8 11 -2 11 21 0 37 -6 41 -15
11z"/>
<path d="M9125 18450 c-279 -60 -465 -287 -465 -564 0 -168 107 -357 255 -451
111 -70 194 -90 342 -82 91 4 104 8 184 48 47 24 105 59 130 78 47 36 107 109
125 151 31 74 56 119 70 124 27 10 1481 6 1464 -5 -8 -5 -53 -32 -100 -60
-181 -108 -312 -211 -476 -374 -296 -294 -489 -601 -614 -975 -44 -131 -56
-178 -96 -365 -13 -65 -26 -201 -31 -345 -23 -645 189 -1242 617 -1735 125
-144 348 -336 509 -438 60 -38 83 -47 118 -47 85 0 136 49 137 131 1 67 -19
96 -109 154 -219 141 -437 352 -593 572 -210 295 -352 665 -392 1018 -13 116
-13 395 0 510 72 631 437 1231 964 1585 74 49 243 150 252 150 2 0 37 15 76
33 79 37 219 89 283 106 78 21 75 26 75 -113 0 -110 2 -126 21 -150 44 -56 39
-55 526 -56 268 -1 459 3 474 9 14 5 38 24 52 41 26 30 27 37 27 143 0 62 4
118 9 125 6 10 19 11 47 6 36 -7 174 -53 219 -74 11 -5 52 -22 91 -39 140 -60
363 -198 484 -300 454 -383 727 -878 800 -1454 11 -87 20 -191 20 -230 0 -40
6 -83 13 -97 21 -41 74 -70 130 -70 44 0 53 4 88 39 43 43 42 39 40 201 -5
308 -97 668 -251 985 -222 456 -589 847 -1015 1081 -36 20 -65 38 -65 40 0 2
338 4 750 4 593 0 750 -3 750 -12 0 -23 60 -140 96 -189 19 -27 63 -69 97 -95
110 -83 205 -115 342 -115 263 -1 485 185 540 449 20 95 19 131 -5 225 -28
110 -73 191 -150 267 -111 110 -234 162 -385 163 -216 0 -398 -112 -494 -304
-23 -45 -41 -88 -41 -95 0 -12 -160 -14 -1052 -12 l-1053 3 -5 165 c-5 179 -9
193 -64 226 -29 18 -62 19 -451 22 -231 2 -439 0 -461 -3 -27 -4 -56 -18 -80
-39 l-39 -34 -5 -168 -5 -169 -1034 -3 c-799 -2 -1037 1 -1048 10 -9 7 -26 36
-38 65 -66 148 -184 257 -338 309 -79 27 -198 38 -262 24z m178 -290 c157 -59
232 -232 161 -371 -32 -64 -82 -114 -137 -139 -59 -27 -167 -27 -223 0 -95 47
-164 152 -164 253 0 104 81 217 183 256 67 26 113 26 180 1z m3375 -256 l2
-271 -67 -6 c-88 -9 -353 -9 -432 -1 l-61 7 0 267 c0 147 3 270 7 273 4 4 128
6 277 5 l271 -3 3 -271z m3002 255 c104 -38 175 -128 184 -235 15 -179 -135
-318 -317 -293 -60 8 -92 23 -141 68 -80 73 -107 177 -76 291 17 62 109 152
176 173 69 21 108 20 174 -4z"/>
<path d="M12320 16388 c-18 -13 -43 -42 -56 -65 -25 -45 -250 -464 -439 -819
-62 -116 -128 -239 -148 -275 -19 -35 -72 -134 -117 -219 -45 -85 -96 -180
-112 -210 -17 -30 -53 -98 -81 -150 -27 -52 -68 -126 -90 -165 -47 -82 -58
-146 -33 -193 8 -16 57 -62 108 -100 193 -145 301 -271 384 -446 34 -72 104
-255 104 -272 0 -1 -36 -3 -79 -6 -88 -5 -120 -20 -151 -71 -19 -30 -20 -52
-20 -347 0 -298 1 -317 20 -348 12 -19 38 -41 63 -52 40 -19 73 -20 717 -20
644 0 677 1 717 20 25 11 51 33 63 52 19 31 20 50 20 348 0 295 -1 317 -20
347 -30 50 -63 66 -146 71 -56 3 -74 8 -74 19 0 29 53 170 100 268 81 168 193
298 377 436 115 86 127 103 120 172 -3 39 -21 82 -69 172 -115 213 -171 319
-195 368 -13 26 -30 50 -38 53 -8 4 -13 10 -10 14 3 4 -6 27 -20 51 -14 24
-27 51 -31 59 -7 17 -25 54 -84 165 -24 44 -64 121 -90 170 -26 50 -59 110
-72 135 -39 71 -207 386 -348 655 -35 66 -72 132 -82 148 -41 59 -129 75 -188
35z m141 -535 c34 -65 72 -136 84 -158 12 -22 53 -98 90 -170 37 -71 90 -173
118 -225 41 -80 249 -462 276 -510 5 -8 20 -37 33 -65 14 -27 57 -113 97 -189
l74 -139 -44 -36 c-75 -61 -178 -163 -234 -231 -100 -123 -205 -331 -260 -515
-15 -49 -30 -101 -34 -115 l-8 -25 -263 0 -264 0 -13 55 c-8 30 -18 64 -23 75
-5 11 -16 43 -23 70 -22 77 -90 225 -144 316 -72 122 -193 256 -331 370 l-44
35 47 90 c26 49 63 118 83 154 19 36 71 133 115 215 44 83 92 173 107 200 15
28 62 115 105 195 43 80 93 174 112 210 20 36 69 128 110 205 144 268 164 305
168 305 2 0 31 -53 66 -117z m450 -2675 c1 -7 3 -67 4 -133 l3 -120 -382 -5
c-209 -3 -445 -4 -523 -2 l-143 4 0 134 0 134 520 0 c409 0 520 -3 521 -12z"/>
<path d="M12328 15558 c-68 -39 -71 -57 -76 -450 -5 -420 -1 -442 95 -495 33
-19 70 -16 113 8 71 40 69 31 70 466 1 437 1 436 -70 474 -45 25 -86 24 -132
-3z"/>
<path d="M8845 16363 c-11 -2 -39 -13 -62 -24 -24 -10 -47 -19 -53 -19 -5 0
-10 -4 -10 -10 0 -5 -6 -10 -13 -10 -21 0 -113 -102 -141 -156 -15 -28 -31
-78 -36 -110 -6 -36 -10 -518 -10 -1211 l0 -1153 -125 0 c-120 0 -127 -1 -150
-25 -17 -16 -25 -35 -25 -60 l0 -35 -445 0 -445 0 0 38 c0 27 -7 45 -23 60
-21 20 -34 22 -139 22 -159 0 -156 3 -160 -162 -3 -146 2 -158 74 -167 l43 -6
0 -95 0 -95 -195 -6 c-107 -3 -204 -9 -215 -13 -47 -20 -94 -79 -105 -131 -7
-34 -10 -287 -8 -766 3 -693 4 -715 23 -748 11 -19 37 -48 58 -65 l39 -31 411
-3 c227 -2 416 -7 420 -11 11 -11 -29 -141 -62 -206 -26 -50 -26 -50 -86 -57
-122 -14 -165 -64 -165 -192 0 -64 3 -77 19 -86 13 -6 144 -10 360 -10 l339 0
4 -302 c3 -291 4 -305 26 -354 27 -60 69 -103 132 -136 l45 -23 3450 -3 c3270
-2 3452 -1 3485 15 92 46 92 196 0 245 -33 17 -156 18 -3448 18 l-3412 0 2
268 3 267 45 4 c25 3 726 6 1559 8 l1515 3 131 -129 c72 -71 143 -135 158
-140 19 -8 263 -11 743 -11 686 0 716 1 752 19 20 11 91 74 157 140 l120 121
1562 0 1563 0 0 -275 0 -275 -224 0 c-215 0 -224 -1 -257 -23 -93 -62 -87
-189 12 -240 31 -16 60 -17 294 -15 l260 3 46 27 c25 15 61 44 79 64 66 75 65
69 68 506 3 380 2 398 -17 436 -40 78 114 72 -1786 72 -1452 0 -1700 -2 -1723
-14 -15 -8 -81 -69 -147 -135 l-120 -121 -640 0 -640 0 -133 133 -132 132
-1660 3 -1659 2 -20 29 c-12 16 -21 32 -21 36 0 4 -6 21 -14 38 -22 49 -47
147 -41 157 4 6 95 10 226 10 l220 0 5 -27 c16 -81 123 -128 193 -85 17 10 41
31 53 47 l23 30 5 2335 c3 1286 9 2343 14 2353 4 10 27 29 51 42 l42 25 312 0
c348 0 345 0 390 67 36 55 26 115 -28 165 l-40 38 -338 -1 c-186 -1 -347 -3
-358 -6z m-1607 -2854 l-3 -71 -70 0 -69 0 -2 63 c0 35 1 67 3 72 2 4 36 7 74
7 l70 0 -3 -71z m1217 -3 l0 -70 -65 2 c-36 0 -68 1 -72 2 -10 0 -10 124 -1
134 4 4 37 6 73 4 l65 -3 0 -69z m-670 -141 l0 -90 -89 -3 c-112 -4 -120 -1
-104 33 10 22 9 29 -8 44 -26 26 -56 13 -89 -40 -42 -66 -43 -98 -4 -163 38
-63 61 -76 90 -50 19 18 20 28 4 67 -7 16 0 18 96 15 l104 -3 5 -130 5 -130
130 -5 130 -5 3 -102 3 -101 -40 5 c-37 5 -41 3 -47 -21 -8 -35 6 -50 78 -86
l60 -29 61 33 c71 39 87 58 71 84 -9 12 -23 16 -53 15 l-42 -2 3 97 3 97 93 3
92 3 -2 -223 -3 -223 -39 -6 c-48 -8 -76 -39 -76 -85 l0 -34 -442 2 -443 3 -6
43 c-7 53 -14 61 -70 70 l-44 8 -3 442 -2 442 40 0 c50 0 80 27 80 73 0 19 3
37 7 41 4 3 106 5 227 4 l221 -3 0 -90z m225 88 c0 -10 -122 -133 -132 -133
-10 0 -11 124 -1 133 9 9 133 9 133 0z m210 -21 c0 -22 -31 -59 -165 -192 -90
-91 -169 -166 -175 -168 -6 -2 -10 18 -10 50 l1 53 135 143 c130 135 138 142
175 142 36 0 39 -2 39 -28z m295 -279 c-3 -10 -17 -13 -42 -11 l-38 3 -3 97
-3 97 43 3 43 3 3 -89 c1 -49 0 -96 -3 -103z m-175 155 c-1 -29 -19 -52 -140
-175 l-140 -143 -55 0 c-30 0 -55 3 -55 7 0 4 75 83 167 175 136 136 173 168
195 168 25 0 28 -4 28 -32z m-2 -240 l-3 -73 -68 -3 c-39 -2 -67 1 -65 6 5 15
122 141 131 142 4 0 7 -33 5 -72z m-1213 -42 c0 -17 -9 -18 -132 -17 -141 2
-192 -9 -212 -47 -8 -14 -11 -231 -11 -695 0 -649 1 -676 19 -698 l19 -24 854
-5 853 -5 0 -30 0 -30 -882 -3 -881 -2 -31 31 -31 31 0 728 0 728 29 31 29 31
189 -2 c176 -3 188 -4 188 -22z m1395 4 c0 -17 -7 -20 -45 -20 -31 0 -45 4
-45 13 0 21 11 27 52 27 31 0 38 -3 38 -20z m-1392 -339 c3 -230 0 -241 -48
-241 -15 0 -37 -8 -49 -17 -20 -16 -22 -28 -22 -128 -1 -147 -1 -141 17 -159
12 -13 40 -16 144 -16 122 0 130 1 144 22 9 12 16 37 16 55 l0 33 445 0 445 0
0 -33 c0 -20 8 -42 20 -55 19 -20 30 -22 151 -22 l129 0 -2 -252 -3 -253 -819
-2 c-591 -2 -823 0 -833 8 -11 9 -13 126 -13 639 0 344 3 630 7 634 4 3 66 5
137 4 l131 -3 3 -214z m1387 -16 l0 -230 -35 3 c-19 2 -38 6 -42 9 -10 5 -10
437 -1 447 4 4 23 6 43 4 l35 -3 0 -230z m-1275 -390 l0 -76 -72 3 -73 3 -1
65 c-1 36 1 68 3 73 2 4 35 7 74 7 l69 0 0 -75z m1218 3 l-3 -73 -70 0 -70 0
-3 73 -3 72 76 0 76 0 -3 -72z m-472 -958 c11 -43 53 -166 68 -202 8 -17 -7
-18 -238 -18 -135 0 -246 3 -246 8 0 4 13 40 30 79 16 40 32 90 35 110 14 80
-2 74 178 71 l162 -3 11 -45z m-261 -319 l240 -1 -3 -50 -4 -50 -314 0 -314 0
0 33 c0 59 20 74 92 71 35 -1 171 -3 303 -3z"/>
<path d="M15241 16353 c-77 -39 -85 -181 -12 -230 23 -16 62 -19 351 -23 320
-5 326 -5 355 -28 16 -12 36 -35 46 -51 16 -26 17 -125 18 -1432 1 -897 5
-1417 11 -1441 16 -57 60 -88 125 -88 46 0 60 5 87 29 20 17 38 46 46 72 18
62 11 2808 -7 2887 -7 29 -23 74 -37 100 -34 64 -125 155 -177 177 -23 9 -51
22 -62 29 -14 7 -128 12 -365 14 -308 2 -349 0 -379 -15z"/>
<path d="M9150 15802 c-19 -9 -45 -32 -57 -51 l-23 -34 0 -2110 0 -2110 24
-42 c46 -77 40 -76 546 -73 424 3 447 4 479 23 99 59 88 206 -20 249 -36 15
-88 17 -393 16 l-351 -1 0 1933 0 1933 95 5 c102 5 128 16 161 67 25 37 25
109 0 149 -34 55 -69 64 -258 64 -140 0 -174 -3 -203 -18z"/>
<path d="M15254 15806 c-100 -44 -109 -191 -15 -244 31 -18 55 -22 120 -22
l81 0 0 -1935 0 -1935 -912 0 c-502 0 -1476 -1 -2165 -3 -1247 -2 -1252 -2
-1279 -23 -48 -35 -67 -69 -67 -117 1 -60 24 -100 70 -123 37 -18 100 -19
2288 -15 1534 2 2256 7 2270 14 26 13 47 43 62 87 10 27 13 494 13 2134 l0
2100 -22 32 c-39 56 -69 64 -251 64 -113 -1 -171 -5 -193 -14z"/>
<path d="M14701 15117 c-52 -18 -76 -58 -76 -125 0 -68 22 -104 78 -127 49
-20 70 -19 115 4 99 51 97 205 -4 247 -40 17 -67 17 -113 1z"/>
<path d="M14440 14612 c-21 -11 -45 -37 -59 -63 -201 -368 -425 -621 -749
-844 -85 -58 -102 -83 -102 -148 0 -78 58 -137 135 -137 43 0 76 16 169 83
334 242 575 513 770 869 60 110 48 201 -34 243 -39 20 -88 19 -130 -3z"/>
<path d="M22988 14587 c-7 -37 0 -64 19 -71 12 -5 14 -1 8 16 -3 13 -10 37
-14 53 l-7 30 -6 -28z"/>
<path d="M23081 14514 c0 -11 3 -14 6 -6 3 7 2 16 -1 19 -3 4 -6 -2 -5 -13z"/>
<path d="M23002 14460 c8 -13 15 -16 19 -8 10 15 2 28 -17 28 -12 0 -12 -4 -2
-20z"/>
<path d="M23040 14380 c-13 -24 -11 -47 15 -200 8 -47 17 -107 20 -134 3 -28
9 -64 14 -80 6 -17 13 -52 17 -78 3 -27 10 -48 15 -48 8 0 7 19 -12 168 -12
94 -11 168 1 211 12 44 2 121 -17 121 -8 0 -20 14 -27 32 l-14 31 -12 -23z"/>
<path d="M23131 13813 c0 -10 4 -27 9 -38 7 -17 9 -15 9 12 1 17 -3 35 -9 38
-5 3 -10 -2 -9 -12z"/>
<path d="M16074 12760 c-59 -23 -86 -105 -60 -175 40 -104 186 -117 245 -22
40 65 16 161 -49 194 -28 14 -104 16 -136 3z"/>
<path d="M16090 12214 c-19 -9 -46 -29 -59 -46 l-25 -31 0 -328 c-1 -316 0
-329 20 -356 31 -43 86 -66 137 -59 49 8 64 18 97 66 l25 35 0 310 c0 275 -2
314 -17 342 -36 65 -114 94 -178 67z"/>
<path d="M10511 11618 c-28 -28 -31 -38 -31 -91 0 -55 3 -62 36 -93 29 -28 43
-34 80 -34 88 0 134 45 134 131 0 45 -4 55 -34 85 -31 31 -39 34 -94 34 -54 0
-63 -3 -91 -32z"/>
<path d="M15502 10255 c-40 -34 -56 -76 -49 -132 4 -38 12 -54 41 -80 31 -28
43 -33 86 -33 57 0 104 20 121 51 38 73 29 139 -26 188 -31 26 -44 31 -90 31
-42 0 -60 -5 -83 -25z"/>
<path d="M14472 9230 c-38 -23 -181 -221 -242 -334 -25 -46 -53 -92 -62 -103
-9 -10 -27 -37 -40 -60 -13 -24 -48 -84 -79 -135 -31 -51 -103 -178 -159 -283
-119 -220 -182 -326 -222 -373 -15 -18 -28 -41 -28 -51 0 -9 -21 -60 -46 -112
-26 -52 -68 -144 -93 -204 -25 -61 -50 -112 -56 -113 -7 -1 -10 248 -10 731
l0 732 -29 50 c-42 72 -54 84 -108 100 -56 16 -101 6 -119 -27 -9 -16 -6 -25
14 -47 34 -37 37 -48 53 -226 11 -118 14 -221 9 -390 -4 -126 -8 -365 -10
-530 -1 -165 -8 -347 -15 -404 -21 -177 -3 -271 52 -271 11 0 45 -17 75 -37
52 -34 57 -36 80 -22 17 9 56 72 115 184 49 94 111 211 137 260 26 50 64 116
84 148 95 147 107 167 107 173 0 12 63 149 80 174 52 76 123 195 162 270 24
47 85 146 134 220 50 74 117 179 148 233 32 54 85 128 117 165 70 79 119 149
119 172 0 17 -82 101 -116 118 -16 9 -27 7 -52 -8z"/>
<path d="M8368 9192 c-10 -4 -47 -35 -83 -70 -67 -66 -78 -92 -53 -132 11 -16
5 -39 -40 -147 -59 -145 -110 -292 -152 -438 -15 -55 -42 -131 -60 -168 -17
-38 -46 -121 -65 -185 -42 -146 -50 -168 -69 -179 -8 -5 -21 -42 -30 -93 -16
-86 -27 -126 -111 -395 -26 -82 -49 -175 -52 -205 -5 -54 -4 -57 32 -89 30
-26 43 -31 64 -26 41 10 48 22 85 150 19 66 57 185 84 265 27 80 60 178 72
219 35 110 46 120 160 132 52 5 129 19 170 30 112 30 318 114 377 153 112 76
322 316 370 424 12 29 30 55 38 58 19 7 32 51 45 146 14 96 2 168 -40 255 -38
77 -136 181 -179 189 -18 4 -37 15 -44 25 -7 10 -47 31 -89 47 -69 27 -90 30
-244 35 -93 4 -177 3 -186 -1z m406 -215 c72 -33 130 -88 162 -153 48 -99 26
-211 -83 -409 -52 -96 -184 -226 -287 -285 -149 -84 -343 -146 -428 -138 -47
4 -47 35 -2 149 20 52 67 186 104 299 64 195 183 474 218 513 38 43 92 58 189
52 50 -2 90 -11 127 -28z"/>
<path d="M15582 9163 c-11 -10 -28 -42 -37 -71 -9 -29 -52 -128 -95 -221 -43
-92 -91 -210 -105 -262 -15 -52 -51 -166 -80 -254 -104 -310 -137 -421 -160
-535 -13 -63 -29 -128 -35 -145 -21 -52 -50 -169 -50 -201 0 -32 13 -44 50
-44 14 0 20 -11 25 -42 13 -76 72 -108 200 -108 139 0 271 52 371 147 34 32
82 75 107 96 69 56 171 198 232 322 96 196 93 268 -15 368 -77 72 -109 78
-216 42 -136 -46 -324 -162 -395 -244 -21 -25 -39 -41 -39 -34 0 16 65 260 92
343 32 101 153 410 212 544 81 183 91 217 72 253 -30 58 -94 80 -134 46z m318
-1097 c0 -59 -80 -218 -154 -308 -78 -94 -226 -215 -311 -254 -70 -32 -191
-64 -241 -64 l-27 0 20 23 c11 12 66 90 121 173 103 154 210 270 313 338 24
17 54 39 66 49 22 19 177 87 201 87 8 0 12 -15 12 -44z"/>
<path d="M12213 9118 c-47 -61 -88 -154 -132 -301 -28 -92 -78 -238 -110 -325
-33 -87 -89 -262 -125 -388 -37 -126 -75 -250 -86 -276 -24 -55 -70 -267 -77
-354 -6 -75 4 -97 59 -125 77 -39 89 -17 148 261 32 151 85 352 102 385 9 17
41 109 72 205 30 96 79 234 107 305 28 72 66 177 85 234 19 57 50 132 69 167
39 70 42 95 19 154 -23 58 -104 93 -131 58z"/>
<path d="M9528 8821 c-26 -13 -34 -24 -41 -58 -5 -26 -22 -58 -47 -86 -23 -25
-40 -55 -40 -69 0 -59 71 -121 126 -110 29 5 114 96 138 147 16 32 16 43 6 80
-13 46 -57 99 -90 108 -10 3 -34 -3 -52 -12z"/>
<path d="M14753 8760 c-42 -63 -48 -89 -30 -131 33 -80 112 -138 187 -139 56
0 80 23 80 77 0 40 -7 56 -60 127 -81 111 -86 116 -117 116 -22 0 -35 -11 -60
-50z"/>
<path d="M11220 8379 c-156 -31 -316 -204 -431 -470 -62 -142 -83 -236 -84
-364 0 -93 3 -117 22 -158 73 -157 213 -219 381 -168 38 11 75 28 82 36 7 8
22 15 35 15 12 0 30 9 41 21 10 12 37 30 60 41 49 22 124 111 124 144 0 17
-10 31 -32 44 -18 11 -37 20 -43 20 -9 0 -75 -38 -228 -133 -104 -64 -228 -61
-264 6 -34 63 -17 229 36 371 l11 28 44 -40 c84 -77 206 -91 309 -34 68 37
165 144 205 225 67 140 64 253 -10 333 -60 65 -169 100 -258 83z m141 -170
c45 -85 -77 -311 -183 -340 -64 -17 -118 18 -118 76 0 10 -10 15 -30 15 -16 0
-30 3 -30 6 0 15 64 95 119 149 108 106 213 147 242 94z"/>
<path d="M16759 8360 c-193 -58 -413 -306 -464 -522 -19 -83 -19 -257 0 -333
18 -69 71 -152 122 -191 84 -64 215 -83 301 -44 86 39 242 179 255 229 4 15
-4 25 -30 41 -19 11 -39 20 -44 20 -6 0 -34 -20 -62 -44 -29 -24 -79 -58 -111
-77 l-59 -33 -71 13 c-104 17 -131 41 -147 126 -8 43 5 179 22 233 14 43 45
50 100 21 59 -30 158 -36 230 -15 109 32 270 184 305 288 14 44 14 52 -1 104
-23 79 -100 156 -170 172 -75 16 -147 21 -176 12z m152 -189 c36 -36 36 -57 4
-105 -63 -93 -127 -126 -245 -126 -47 0 -91 4 -99 9 -25 16 -2 60 73 136 113
116 207 146 267 86z"/>
<path d="M9829 8251 c-32 -33 -37 -65 -14 -98 21 -29 98 -216 115 -277 l13
-48 -196 -195 c-138 -136 -197 -202 -197 -217 0 -26 53 -80 93 -95 41 -16 73
5 197 123 167 162 189 179 206 165 8 -6 14 -20 14 -30 0 -10 6 -22 13 -26 6
-4 19 -21 27 -37 19 -37 158 -167 233 -216 64 -43 178 -83 223 -78 24 2 30 8
32 32 6 50 -17 85 -72 113 -55 27 -166 108 -232 170 -34 31 -130 175 -137 205
-3 10 279 237 365 294 37 24 72 53 78 63 20 38 12 88 -21 125 -39 45 -60 51
-101 30 -57 -29 -191 -126 -248 -180 -60 -56 -132 -99 -154 -91 -7 3 -19 26
-25 52 -13 54 -70 169 -97 201 -11 12 -34 27 -52 33 -31 10 -36 8 -63 -18z"/>
<path d="M14641 8154 c-12 -15 -21 -33 -21 -41 0 -19 -139 -366 -206 -517 -30
-66 -54 -125 -54 -131 0 -7 7 -18 15 -25 8 -7 15 -21 15 -31 0 -29 29 -50 64
-47 29 3 35 11 112 164 89 177 179 396 197 479 9 46 8 59 -7 94 -38 82 -78
102 -115 55z"/>
<path d="M9345 8123 c-11 -3 -23 -8 -27 -11 -4 -4 -25 -67 -48 -141 -23 -74
-59 -182 -82 -240 -49 -130 -71 -225 -72 -313 -1 -72 13 -101 67 -141 39 -30
50 -14 97 136 72 227 123 375 169 489 40 98 39 125 -2 180 -33 43 -57 52 -102
41z"/>
<path d="M10115 6674 c-25 -25 -16 -75 18 -94 24 -13 30 -13 55 0 53 30 33
110 -29 110 -15 0 -35 -7 -44 -16z"/>
<path d="M13140 6670 c-25 -25 -25 -41 1 -74 25 -31 61 -34 89 -6 24 24 25 48
4 78 -19 28 -67 29 -94 2z"/>
<path d="M17198 6678 c-30 -24 -31 -56 -4 -83 30 -30 59 -32 86 -5 54 54 -22
135 -82 88z"/>
<path d="M7136 6669 c-241 -57 -371 -323 -267 -545 79 -168 266 -260 462 -226
89 15 154 48 206 105 61 66 81 113 97 225 l6 42 -165 0 -165 0 0 -35 0 -35
116 0 117 0 -6 -36 c-13 -79 -97 -160 -192 -185 -22 -6 -74 -9 -115 -7 -181
11 -312 142 -314 313 -1 121 63 222 177 282 47 25 62 28 152 28 93 0 104 -2
161 -32 34 -17 76 -44 93 -59 l33 -27 30 30 30 31 -54 40 c-115 88 -269 122
-402 91z"/>
<path d="M9490 6295 l0 -385 39 0 39 0 4 179 c4 178 4 180 33 227 41 65 101
97 172 91 57 -4 84 -22 111 -72 13 -24 17 -70 20 -227 l4 -198 35 0 34 0 -3
213 c-3 243 -10 268 -87 322 -38 27 -51 30 -114 30 -61 0 -80 -4 -119 -27 -25
-16 -56 -40 -67 -54 l-21 -27 0 157 0 156 -40 0 -40 0 0 -385z"/>
<path d="M15095 6669 c-100 -37 -145 -160 -92 -254 12 -22 58 -69 102 -105
164 -133 197 -183 172 -258 -24 -73 -124 -105 -194 -62 -18 10 -44 37 -59 59
-26 40 -27 40 -54 26 -16 -8 -31 -19 -35 -24 -9 -15 76 -112 118 -134 178 -92
379 83 298 258 -23 49 -81 109 -183 187 -82 62 -108 98 -108 148 0 55 66 101
126 86 14 -4 45 -25 69 -47 l44 -40 30 22 30 22 -30 38 c-16 21 -45 47 -64 59
-41 25 -127 34 -170 19z"/>
<path d="M16980 6525 l0 -156 -33 34 c-46 46 -99 69 -171 74 -171 13 -321
-142 -303 -313 15 -149 117 -252 258 -262 90 -6 148 11 204 60 l45 40 0 -46 0
-46 40 0 40 0 0 385 0 385 -40 0 -40 0 0 -155z m-101 -148 c62 -41 92 -94 98
-171 5 -57 2 -72 -22 -121 -21 -45 -37 -61 -78 -85 -150 -86 -327 17 -327 190
0 87 45 160 123 200 60 30 149 25 206 -13z"/>
<path d="M15570 6570 l0 -100 -45 0 c-45 0 -45 0 -45 -35 0 -35 0 -35 45 -35
l45 0 0 -245 0 -245 40 0 40 0 0 245 0 245 55 0 55 0 0 35 0 35 -55 0 -55 0 0
100 0 100 -40 0 -40 0 0 -100z"/>
<path d="M11310 6284 l0 -376 193 4 c183 3 195 4 248 29 64 30 120 82 149 139
78 152 58 343 -47 460 -85 95 -169 120 -400 120 l-143 0 0 -376z m356 281 c78
-22 127 -64 165 -141 30 -60 33 -75 32 -150 0 -69 -5 -92 -27 -138 -55 -112
-129 -146 -323 -146 l-123 0 0 301 0 301 113 -7 c61 -4 135 -13 163 -20z"/>
<path d="M7900 6469 c-14 -6 -40 -24 -57 -42 l-33 -31 0 38 c0 37 0 37 -37 34
l-38 -3 -3 -277 -2 -278 39 0 39 0 4 183 c4 157 7 188 25 229 25 56 63 83 112
81 31 -2 39 3 53 28 17 29 17 30 -8 39 -31 12 -61 12 -94 -1z"/>
<path d="M8247 6466 c-199 -74 -262 -315 -124 -472 104 -118 294 -128 405 -21
l32 31 0 -47 0 -47 35 0 35 0 0 280 0 280 -35 0 -35 0 0 -52 0 -52 -37 36
c-21 20 -54 44 -73 53 -46 24 -154 29 -203 11z m194 -79 c54 -28 105 -101 115
-162 14 -95 -35 -194 -117 -235 -55 -28 -143 -27 -200 3 -125 66 -148 259 -42
359 64 61 166 76 244 35z"/>
<path d="M8982 6463 c-24 -8 -61 -32 -83 -53 l-39 -37 0 49 0 49 -37 -3 -38
-3 -3 -377 -2 -378 40 0 40 0 0 146 0 146 38 -34 c59 -53 117 -72 206 -66 56
4 85 11 119 31 116 69 171 209 132 342 -22 75 -105 163 -179 188 -60 21 -136
21 -194 0z m171 -66 c82 -35 137 -118 137 -207 0 -86 -46 -162 -123 -201 -61
-32 -161 -24 -218 16 -111 78 -122 252 -22 347 57 55 155 74 226 45z"/>
<path d="M10555 6474 c-122 -31 -201 -107 -231 -223 -16 -64 -9 -145 17 -193
28 -52 102 -118 155 -138 67 -25 181 -27 247 -4 43 14 137 86 137 104 0 4 -11
15 -25 24 -25 16 -27 16 -67 -18 -54 -47 -95 -59 -182 -54 -89 4 -141 34 -182
104 -55 94 -40 198 41 273 52 48 108 65 188 58 59 -5 138 -43 155 -74 8 -14
14 -15 41 -3 38 15 38 20 6 59 -42 49 -125 84 -208 87 -40 2 -81 1 -92 -2z"/>
<path d="M12249 6467 c-85 -32 -144 -90 -180 -177 -21 -53 -18 -166 7 -221 51
-111 140 -169 260 -169 115 0 194 38 248 120 14 22 26 41 26 44 0 2 -14 9 -30
16 -30 12 -32 11 -66 -29 -51 -59 -99 -81 -176 -81 -106 0 -189 68 -204 168
l-7 42 253 0 252 0 -7 48 c-22 147 -124 241 -269 249 -44 2 -85 -2 -107 -10z
m192 -84 c51 -27 98 -84 99 -120 0 -10 -47 -13 -200 -13 -157 0 -200 3 -200
13 0 32 57 99 104 122 67 34 127 33 197 -2z"/>
<path d="M12810 6462 c-55 -27 -83 -77 -78 -138 6 -67 32 -101 108 -144 98
-55 124 -81 124 -125 0 -80 -100 -113 -179 -59 l-38 25 -21 -20 c-27 -27 -15
-48 44 -78 81 -42 182 -27 229 32 75 97 41 195 -95 271 -104 58 -133 119 -78
163 36 28 81 26 128 -5 l38 -26 24 23 c29 27 22 38 -49 74 -60 29 -108 32
-157 7z"/>
<path d="M13536 6464 c-71 -22 -159 -112 -180 -184 -20 -68 -20 -115 1 -179
59 -185 311 -253 456 -122 l39 36 -7 -65 c-4 -36 -14 -77 -21 -92 -60 -117
-294 -128 -376 -18 -17 24 -29 30 -60 30 -43 0 -43 -1 -24 -38 61 -116 226
-167 389 -120 48 15 112 69 140 122 21 39 22 54 25 339 l3 297 -35 0 c-36 0
-36 0 -36 -46 l0 -45 -45 36 c-75 62 -169 79 -269 49z m189 -73 c84 -38 133
-128 122 -223 -14 -112 -83 -179 -192 -186 -35 -2 -79 1 -99 8 -152 50 -185
265 -58 370 63 52 154 64 227 31z"/>
<path d="M14267 6466 c-39 -14 -55 -25 -99 -65 l-28 -25 0 47 0 47 -35 0 -35
0 0 -280 0 -280 35 0 35 0 0 118 c1 184 12 257 47 300 44 55 77 74 131 80 61
5 110 -16 137 -61 18 -28 20 -55 23 -234 l3 -203 41 0 40 0 -5 198 c-2 108
-10 214 -16 234 -34 109 -158 165 -274 124z"/>
<path d="M17589 6464 c-64 -19 -140 -90 -169 -156 -32 -71 -33 -174 -3 -240
31 -67 99 -132 162 -153 65 -21 179 -17 232 9 177 86 215 331 74 472 -78 79
-184 103 -296 68z m186 -82 c93 -46 140 -149 115 -254 -16 -66 -88 -143 -144
-154 -64 -12 -141 0 -184 29 -80 53 -115 181 -73 272 20 46 89 112 123 119 13
3 32 7 43 9 29 6 85 -3 120 -21z"/>
<path d="M10120 6191 l0 -281 40 0 40 0 -2 278 -3 277 -37 3 -38 3 0 -280z"/>
<path d="M13150 6190 l0 -280 35 0 35 0 0 280 0 280 -35 0 -35 0 0 -280z"/>
<path d="M15853 6278 c2 -106 10 -210 16 -231 7 -21 26 -54 44 -74 46 -53 98
-73 187 -73 90 0 141 20 187 73 49 55 57 100 57 307 l1 185 -37 3 -36 3 -4
-200 c-3 -183 -5 -202 -24 -227 -41 -55 -70 -69 -144 -69 -74 0 -103 14 -144
69 -19 25 -21 44 -24 227 l-4 199 -40 0 -40 0 5 -192z"/>
<path d="M17200 6191 l0 -281 40 0 40 0 -2 278 -3 277 -37 3 -38 3 0 -280z"/>
<path d="M19009 5705 c-57 -32 -52 -123 8 -146 60 -22 133 20 133 77 0 59 -86
101 -141 69z m100 -31 c27 -34 26 -50 -4 -79 -44 -45 -117 -20 -117 40 0 61
83 88 121 39z"/>
<path d="M19018 5663 c6 -2 12 -15 12 -28 0 -13 -6 -26 -12 -28 -7 -3 3 -5 22
-5 19 0 29 2 23 5 -7 2 -13 16 -13 30 0 15 5 23 13 20 6 -2 11 -10 9 -17 -3
-15 16 -40 32 -40 6 0 3 6 -6 14 -14 10 -15 15 -5 25 17 17 -8 31 -53 30 -19
0 -29 -3 -22 -6z"/>
<path d="M15569 5643 c-1 -5 -1 -21 0 -38 1 -45 -188 -437 -217 -450 -38 -17
-26 -35 22 -35 24 0 58 -3 75 -6 24 -5 31 -3 31 9 0 8 -11 18 -25 21 -14 4
-25 12 -25 19 0 18 148 362 156 362 5 0 94 -189 94 -201 0 -2 -39 -5 -87 -6
-70 -2 -88 -6 -88 -18 0 -12 19 -16 98 -18 l98 -3 20 -46 c24 -57 22 -85 -9
-93 -13 -3 -24 -9 -25 -14 -1 -6 70 -10 176 -11 175 -1 210 6 155 30 -23 10
-23 12 -26 253 l-2 242 -55 0 c-40 0 -55 -4 -55 -14 0 -8 11 -17 25 -20 l25
-6 -2 -228 -3 -227 -35 -3 c-27 -2 -41 3 -57 20 -12 13 -65 120 -118 238 -54
118 -105 223 -113 233 -16 18 -31 22 -33 10z"/>
<path d="M17254 5641 c-10 -10 -3 -21 14 -21 39 0 42 -16 42 -240 0 -225 -3
-240 -43 -240 -10 0 -17 -5 -15 -12 6 -16 160 -18 165 -2 2 7 -8 14 -22 18
-24 6 -25 9 -25 86 0 73 2 82 28 111 l28 32 82 -105 c88 -114 118 -140 166
-142 38 -1 49 28 14 37 -14 4 -60 56 -121 136 l-99 130 63 82 c34 45 75 89 90
98 16 9 27 20 26 25 -4 12 -136 16 -143 4 -3 -4 6 -12 20 -18 14 -5 26 -12 26
-15 0 -7 -171 -235 -176 -235 -2 0 -4 52 -4 115 l0 114 31 16 c17 9 28 20 24
23 -7 8 -163 10 -171 3z"/>
<path d="M18059 5643 c-1 -5 -1 -21 0 -38 1 -45 -188 -437 -217 -450 -38 -17
-26 -35 22 -35 24 0 58 -3 75 -6 24 -5 31 -3 31 9 0 8 -11 18 -25 21 -14 4
-25 12 -25 19 0 18 148 362 156 362 5 0 94 -189 94 -201 0 -2 -39 -5 -87 -6
-70 -2 -88 -6 -88 -18 0 -12 19 -16 98 -18 l98 -3 20 -46 c24 -57 22 -85 -9
-93 -56 -13 -12 -23 103 -25 97 -1 128 2 137 13 8 10 9 19 1 30 -15 25 -50 27
-65 3 -32 -52 -58 -16 -173 239 -54 118 -105 223 -113 233 -16 18 -31 22 -33
10z"/>
<path d="M18470 5637 c0 -9 10 -17 23 -19 l22 -3 0 -230 0 -230 -23 -3 c-13
-2 -21 -9 -19 -15 3 -9 48 -12 153 -12 132 1 153 3 189 22 84 44 134 128 135
224 0 114 -54 198 -160 248 -49 23 -70 26 -187 29 -114 3 -133 2 -133 -11z
m268 -32 c80 -34 123 -103 130 -211 5 -84 -8 -132 -51 -180 -42 -48 -77 -64
-142 -64 -42 0 -60 5 -75 20 -19 19 -20 33 -20 225 0 184 2 205 18 214 26 15
98 13 140 -4z"/>
<path d="M16410 5624 c0 -7 11 -15 25 -18 l25 -6 -2 -228 c-3 -227 -3 -227
-25 -230 -13 -2 -23 -9 -23 -16 0 -10 21 -13 80 -12 82 2 98 10 58 30 -30 15
-34 47 -8 71 21 19 21 19 73 -37 29 -31 62 -59 75 -63 29 -9 72 18 72 45 0 23
-3 24 -30 8 -19 -12 -25 -8 -70 42 -27 30 -49 63 -50 72 0 25 53 58 94 58 25
0 36 4 36 15 0 12 -14 15 -70 15 -69 0 -81 -5 -59 -27 7 -7 -2 -21 -34 -47
-24 -20 -47 -36 -51 -36 -3 0 -6 85 -6 188 l0 188 -55 0 c-36 0 -55 -4 -55
-12z"/>
<path d="M16176 5370 c-102 -31 -124 -162 -38 -228 30 -23 45 -27 97 -27 42 0
69 6 88 18 92 60 84 182 -16 228 -45 20 -84 23 -131 9z m105 -30 c24 -13 49
-61 49 -95 0 -34 -25 -82 -49 -95 -52 -28 -112 -2 -131 56 -31 94 49 177 131
134z"/>
<path d="M16883 5369 c-37 -11 -50 -26 -35 -41 8 -8 18 -6 36 6 29 18 59 21
87 6 28 -16 28 -141 -1 -170 -26 -26 -80 -26 -108 0 -28 26 -28 54 -1 81 18
18 29 20 66 15 50 -7 57 12 11 28 -61 22 -158 -32 -158 -87 0 -69 96 -116 173
-84 24 11 37 12 39 5 5 -15 108 -18 108 -4 0 6 -10 16 -22 21 -21 9 -24 19
-28 97 -4 72 -9 91 -26 109 -25 25 -92 33 -141 18z"/>
<path d="M17729 5164 c-17 -21 0 -49 31 -49 31 0 48 28 31 49 -8 9 -21 16 -31
16 -10 0 -23 -7 -31 -16z"/>
</g>
</svg>
